name rise32.9588peak41.5061fall63.4684.mot
datacolumns 19
datarows 14
range 20.53992100000000 20.56159300000000
endheader
time	ground_force1_vx	ground_force1_vy	ground_force1_vz	ground_force1_px	ground_force1_py	ground_force1_pz	ground_force2_vx	ground_force2_vy	ground_force2_vz	ground_force2_px	ground_force2_py	ground_force2_pz	ground_torque1_x	ground_torque1_y	ground_torque1_z	ground_torque2_x	ground_torque2_y	ground_torque2_z	
20.53992100000000	-8.33572600000000	42.22172600000000	-10.97370500000000	0.22386600000000	0.00000000000000	0.09235600000000	-33.91629000000000	752.34796800000004	-48.06400700000000	0.07812300000000	0.00000000000000	-0.07321100000000	0.00000000000000	-4.83199800000000	0.00000000000000	0.00000000000000	-10.36563900000000	0.00000000000000	
20.54158700000000	-9.12026700000000	49.91755200000000	-12.33718500000000	0.23091500000000	0.00000000000000	0.09347900000000	-34.32526500000000	749.11990300000002	-47.75135400000000	0.07745900000000	0.00000000000000	-0.07315000000000	0.00000000000000	-5.56447800000000	0.00000000000000	0.00000000000000	-10.32710500000000	0.00000000000000	
20.54325500000000	-9.74139500000000	57.82217200000000	-13.57544400000000	0.23714600000000	0.00000000000000	0.09447100000000	-34.76129600000000	745.80550500000004	-47.41615600000000	0.07679400000000	0.00000000000000	-0.07308400000000	0.00000000000000	-6.26306600000000	0.00000000000000	0.00000000000000	-10.29261800000000	0.00000000000000	
20.54492100000000	-10.17642300000000	65.84214400000000	-14.65955600000000	0.24271600000000	0.00000000000000	0.09535700000000	-35.22391200000000	742.40284199999996	-47.05823800000000	0.07613100000000	0.00000000000000	-0.07301300000000	0.00000000000000	-6.91211600000000	0.00000000000000	0.00000000000000	-10.26214900000000	0.00000000000000	
20.54658600000000	-10.41208200000000	73.90376999999999	-15.57040600000000	0.24774500000000	0.00000000000000	0.09615500000000	-35.71251900000000	738.90984300000002	-46.67745700000000	0.07547100000000	0.00000000000000	-0.07293600000000	0.00000000000000	-7.50010700000000	0.00000000000000	0.00000000000000	-10.23565300000000	0.00000000000000	
20.54825400000000	-10.44436100000000	81.95573400000001	-16.29880800000000	0.25232600000000	0.00000000000000	0.09687800000000	-36.22640200000000	735.32430799999997	-46.27370000000000	0.07481500000000	0.00000000000000	-0.07285500000000	0.00000000000000	-8.01990500000000	0.00000000000000	0.00000000000000	-10.21306000000000	0.00000000000000	
20.54992300000000	-10.27761100000000	89.96945800000000	-16.84479100000000	0.25653100000000	0.00000000000000	0.09753900000000	-36.76472500000000	731.64391300000000	-45.84688400000000	0.07416400000000	0.00000000000000	-0.07276800000000	0.00000000000000	-8.46862000000000	0.00000000000000	0.00000000000000	-10.19428400000000	0.00000000000000	
20.55158900000000	-9.92312800000000	97.93751600000000	-17.21625700000000	0.26041800000000	0.00000000000000	0.09814400000000	-37.32653000000000	727.86622599999998	-45.39695900000000	0.07352000000000	0.00000000000000	-0.07267500000000	0.00000000000000	-8.84714300000000	0.00000000000000	0.00000000000000	-10.17921600000000	0.00000000000000	
20.55325800000000	-9.39740700000000	105.87057600000000	-17.42722100000000	0.26403200000000	0.00000000000000	0.09870300000000	-37.91074100000000	723.98871399999996	-44.92390800000000	0.07288500000000	0.00000000000000	-0.07257600000000	0.00000000000000	-9.15946200000000	0.00000000000000	0.00000000000000	-10.16772700000000	0.00000000000000	
20.55492700000000	-8.72027400000000	113.79338300000001	-17.49585700000000	0.26741300000000	0.00000000000000	0.09922100000000	-38.51616400000000	720.00875599999995	-44.42774900000000	0.07225800000000	0.00000000000000	-0.07247200000000	0.00000000000000	-9.41183300000000	0.00000000000000	0.00000000000000	-10.15966800000000	0.00000000000000	
20.55659300000000	-7.91307000000000	121.74027599999999	-17.44254600000000	0.27058900000000	0.00000000000000	0.09970300000000	-39.14148800000000	715.92365500000005	-43.90853700000000	0.07164300000000	0.00000000000000	-0.07236100000000	0.00000000000000	-9.61191700000000	0.00000000000000	0.00000000000000	-10.15486900000000	0.00000000000000	
20.55825700000000	-6.99702800000000	129.75069900000000	-17.28807500000000	0.27358600000000	0.00000000000000	0.10015400000000	-39.78529000000000	711.73065099999997	-43.36636000000000	0.07104000000000	0.00000000000000	-0.07224400000000	0.00000000000000	-9.76795100000000	0.00000000000000	0.00000000000000	-10.15313900000000	0.00000000000000	
20.55992300000000	-5.99193900000000	137.86505099999999	-17.05212200000000	0.27642500000000	0.00000000000000	0.10057600000000	-40.44603300000000	707.42693899999995	-42.80135000000000	0.07045100000000	0.00000000000000	-0.07212100000000	0.00000000000000	-9.88801700000000	0.00000000000000	0.00000000000000	-10.15427000000000	0.00000000000000	
20.56159300000000	-4.91515600000000	146.12114800000001	-16.75208100000000	0.27912200000000	0.00000000000000	0.10097200000000	-41.12207600000000	703.00968000000000	-42.21367500000000	0.06987600000000	0.00000000000000	-0.07199200000000	0.00000000000000	-9.97944600000000	0.00000000000000	0.00000000000000	-10.15803200000000	0.00000000000000	
